:SAMPLES-PER-SECOND 30
:FULLY-SPECIFIED
:DEGREES
308
root  23.121 38.7726 50.2132 -3.74313 -1.43907 -3.91899
RightUpLeg  -2.05814 0.1435 9.09508
RightLeg  22.405 3.01867 -4.80703
RightFoot  -17.365 0.0606018 0.162999
RightToes  5.82077e-011 -3.18055e-015 -2.98177e-016
Spine  8.7602 0.191252 12.1416
Spine1  -0.406211 1.70024 -1.08152
HEad  -10.6654 -5.62072 5.64803
LeftShoulder1  -3.88251e-019 9.70628e-020 -3.87848e-018
LeftArm  -30.8276 64.9814 -73.3386
LeftForeArm  -15.0523 -13.0299 -2.25706
LeftHand  -0.45114 -0.822793 9.10582
RightShoulder  7.69223 10.7027 35.9736
RightArm  19.3031 -40.0346 23.2222
RightForeArm  -3.73504 20.7418 -9.80354
RightHand  -1.20192 4.41515 -14.1123
LeftUpLeg  -25.8642 11.3252 1.11149
LeftLeg  43.1452 0.971432 15.8497
LeftFoot  -1.57435 0.0651309 -0.667928
LeftToes  7.79675e-011 9.80247e-012 -3.28897e-011
309
root  23.2624 38.875 51.5927 -4.11752 -2.05096 -2.27923
RightUpLeg  1.05978 -0.571039 6.99182
RightLeg  21.279 4.44592 -4.70508
RightFoot  -18.9075 0.106739 0.941919
RightToes  5.82077e-011 -3.18055e-015 -2.98177e-016
Spine  8.25646 0.890905 11.4431
Spine1  0.200893 2.52163 -3.54943
HEad  -11.1934 -6.33516 6.0422
LeftShoulder1  -3.88251e-019 9.70628e-020 -3.87848e-018
LeftArm  -31.5941 66.9898 -72.7681
LeftForeArm  -14.5539 -10.3302 -2.0834
LeftHand  -0.272701 0.752625 7.42206
RightShoulder  7.64072 10.6779 35.7705
RightArm  23.4865 -38.3217 24.5029
RightForeArm  -7.44052 24.0405 -12.7597
RightHand  -1.25905 4.50844 -14.6298
LeftUpLeg  -23.6801 10.5343 -0.39303
LeftLeg  29.5739 0.872817 9.98137
LeftFoot  -1.06497 0.2379 -2.25883
LeftToes  7.79675e-011 9.80247e-012 -3.28897e-011
310
root  23.4184 38.9473 52.9398 -4.61601 -2.55853 -0.615864
RightUpLeg  4.31071 -1.4219 4.57758
RightLeg  19.9417 5.77538 -4.44051
RightFoot  -19.8336 0.170941 1.87408
RightToes  5.82077e-011 -3.18055e-015 -2.98177e-016
Spine  7.74801 1.53394 10.2458
Spine1  1.38251 3.36938 -5.82237
HEad  -11.1806 -6.78728 6.04046
LeftShoulder1  -3.88251e-019 9.70628e-020 -3.87848e-018
LeftArm  -32.0442 68.8222 -71.9734
LeftForeArm  -13.39 -7.55382 -1.92298
LeftHand  -0.140255 1.94085 5.1993
RightShoulder  7.47473 10.5881 35.1352
RightArm  24.4714 -37.1278 25.244
RightForeArm  -7.50034 27.8365 -14.6073
RightHand  -1.36099 4.67237 -15.5491
LeftUpLeg  -20.7107 6.30838 -1.11254
LeftLeg  16.8734 -0.216746 5.4225
LeftFoot  2.38917 0.351886 -2.5596
LeftToes  7.79675e-011 9.80247e-012 -3.28897e-011
311
root  23.6425 38.8962 54.2911 -5.39008 -3.59285 0.708293
RightUpLeg  7.28522 -1.74438 2.33021
RightLeg  19.6227 6.95459 -4.4023
RightFoot  -21.0011 0.235009 2.46564
RightToes  5.82077e-011 -3.18055e-015 -2.98177e-016
Spine  7.30334 2.14238 9.41872
Spine1  3.13461 4.38288 -7.82304
HEad  -10.646 -6.84629 5.73932
LeftShoulder1  -3.88251e-019 9.70628e-020 -3.87848e-018
LeftArm  -32.672 70.6446 -71.374
LeftForeArm  -11.9357 -5.05076 -1.73287
LeftHand  -0.0902821 2.52933 3.91967
RightShoulder  7.42097 10.5454 34.9569
RightArm  25.6136 -36.1446 24.9497
RightForeArm  -8.95417 32.3129 -17.1052
RightHand  -1.42733 4.9013 -15.9452
LeftUpLeg  -18.5685 -0.96619 -0.733843
LeftLeg  10.9345 1.5426 4.33782
LeftFoot  5.97707 0.313871 -1.77919
LeftToes  7.79675e-011 9.80247e-012 -3.28897e-011
312
root  23.9417 38.7462 55.6862 -6.46382 -4.58095 2.26041
RightUpLeg  9.13358 -1.4703 -0.425103
RightLeg  22.1746 7.86598 -4.61018
RightFoot  -22.5936 0.416477 4.08681
RightToes  5.82077e-011 -3.18055e-015 -2.98177e-016
Spine  7.03602 2.45604 8.0904
Spine1  4.97041 5.02342 -8.76202
HEad  -10.2722 -6.43857 5.52317
LeftShoulder1  -3.88251e-019 9.70628e-020 -3.87848e-018
LeftArm  -33.8893 72.2768 -71.2274
LeftForeArm  -11.1761 -3.12806 -1.4264
LeftHand  -0.0746061 2.9828 3.77204
RightShoulder  7.57219 10.6119 35.5728
RightArm  25.8979 -35.4241 24.1192
RightForeArm  -11.1727 36.9025 -19.9707
RightHand  -1.52002 5.45478 -16.1212
LeftUpLeg  -18.1059 -5.5427 -1.90481
LeftLeg  13.589 2.9517 5.70149
LeftFoot  6.97949 0.0773761 -0.313593
LeftToes  7.79675e-011 9.80247e-012 -3.28897e-011
313
root  24.2677 38.4947 57.1104 -7.55958 -4.58447 4.28337
RightUpLeg  8.5634 -2.12854 -4.19195
RightLeg  29.6096 9.20728 -5.07171
RightFoot  -22.9317 0.752088 8.14722
RightToes  5.82077e-011 -3.18055e-015 -2.98177e-016
Spine  6.99017 2.28667 6.18601
Spine1  6.23601 5.04578 -8.97578
HEad  -10.5778 -6.0177 5.58041
LeftShoulder1  -3.88251e-019 9.70628e-020 -3.87848e-018
LeftArm  -34.6288 72.9665 -70.5471
LeftForeArm  -11.0425 -1.64473 -0.965735
LeftHand  -0.069277 3.5571 4.75712
RightShoulder  7.74401 10.6931 36.2535
RightArm  24.4977 -35.9672 23.8702
RightForeArm  -13.2378 40.1649 -22.2517
RightHand  -1.75572 6.36489 -17.1611
LeftUpLeg  -17.8724 -5.32501 -4.9959
LeftLeg  19.5607 1.65915 6.99723
LeftFoot  5.019 -0.180092 1.23147
LeftToes  7.79675e-011 9.80247e-012 -3.28897e-011
314
root  24.5486 38.2927 58.4238 -8.1592 -4.2157 6.3478
RightUpLeg  4.99672 -3.42605 -7.95695
RightLeg  40.3996 9.83497 -6.62931
RightFoot  -17.7605 0.514731 11.7905
RightToes  5.82077e-011 -3.18055e-015 -2.98177e-016
Spine  7.2095 2.06681 4.67185
Spine1  6.85135 5.15855 -10.1521
HEad  -11.2418 -6.11371 5.42711
LeftShoulder1  -3.88251e-019 9.70628e-020 -3.87848e-018
LeftArm  -33.7957 72.3598 -68.5768
LeftForeArm  -10.8505 -0.487892 -0.470547
LeftHand  -0.055681 4.2162 6.62313
RightShoulder  7.77118 10.7002 36.3723
RightArm  21.7127 -38.1769 24.4054
RightForeArm  -14.7752 41.3885 -23.1252
RightHand  -2.08227 7.28649 -18.8724
LeftUpLeg  -17.1064 -2.65757 -8.25922
LeftLeg  23.6315 -0.736284 7.1827
LeftFoot  1.32401 -0.307501 2.46203
LeftToes  7.79675e-011 9.80247e-012 -3.28897e-011
315
root  24.7655 38.3222 59.5603 -8.31906 -5.01102 7.90514
RightUpLeg  -1.07121 -3.82065 -10.2137
RightLeg  50.8013 8.83273 -10.6226
RightFoot  -5.83829 -0.593491 10.3949
RightToes  5.82077e-011 -3.18055e-015 -2.98177e-016
Spine  7.63078 2.34234 3.78477
Spine1  7.25288 5.77602 -12.2599
HEad  -11.6228 -6.37993 4.2824
LeftShoulder1  -3.88251e-019 9.70628e-020 -3.87848e-018
LeftArm  -32.8945 71.2153 -67.3265
LeftForeArm  -10.8204 -0.162264 -0.208708
LeftHand  -0.0456421 4.50966 8.22906
RightShoulder  7.71591 10.6704 36.1636
RightArm  19.2031 -40.7039 25.0183
RightForeArm  -15.3256 40.8734 -22.677
RightHand  -2.20744 7.73385 -19.3169
LeftUpLeg  -15.648 0.610608 -10.3208
LeftLeg  24.748 -2.51856 6.59721
LeftFoot  -2.02861 -0.326668 3.30327
LeftToes  7.79675e-011 9.80247e-012 -3.28897e-011
316
root  24.9324 38.4638 60.629 -8.51223 -6.76303 8.72313
RightUpLeg  -7.64418 -3.93996 -10.851
RightLeg  58.4607 7.94958 -15.7951
RightFoot  5.34688 -0.729881 4.20984
RightToes  5.82077e-011 -3.18055e-015 -2.98177e-016
Spine  7.89758 2.84483 2.46738
Spine1  7.84635 6.09621 -12.9198
HEad  -11.5454 -5.91076 2.10338
LeftShoulder1  -3.88251e-019 9.70628e-020 -3.87848e-018
LeftArm  -33.4822 70.458 -68.531
LeftForeArm  -11.388 -1.20898 -0.333658
LeftHand  -0.0913687 3.8476 8.50566
RightShoulder  7.70714 10.6767 36.1057
RightArm  18.4511 -41.96 25.058
RightForeArm  -13.414 38.9915 -21.3426
RightHand  -1.9907 7.63101 -17.5855
LeftUpLeg  -13.6233 2.75063 -11.2397
LeftLeg  24.658 -2.71227 6.48141
LeftFoot  -4.1473 -0.281399 3.4383
LeftToes  7.79675e-011 9.80247e-012 -3.28897e-011
317
root  25.0429 38.6375 61.7603 -8.64947 -7.69123 8.54838
RightUpLeg  -12.64 -5.80088 -10.1991
RightLeg  62.9875 7.73972 -19.9427
RightFoot  8.37379 0.23026 -1.56908
RightToes  5.82077e-011 -3.18055e-015 -2.98177e-016
Spine  7.49216 2.75433 0.765855
Spine1  8.45079 5.26366 -10.8719
HEad  -11.1939 -4.54624 -0.12197
LeftShoulder1  -3.88251e-019 9.70628e-020 -3.87848e-018
LeftArm  -34.6576 69.8103 -70.8568
LeftForeArm  -11.8898 -3.2177 -0.706237
LeftHand  -0.164774 2.6814 7.99269
RightShoulder  7.77654 10.727 36.3392
RightArm  18.8279 -42.0675 24.5065
RightForeArm  -7.95268 35.6216 -19.2617
RightHand  -1.77162 7.63152 -15.71
LeftUpLeg  -11.2452 1.7169 -11.3326
LeftLeg  24.2861 -0.845024 7.31551
LeftFoot  -5.56081 -0.197939 2.77751
LeftToes  7.79675e-011 9.80247e-012 -3.28897e-011
318
root  25.0465 38.9106 62.9198 -8.35136 -7.33959 7.64841
RightUpLeg  -16.3664 -9.21018 -8.39279
RightLeg  64.7013 7.6425 -22.1086
RightFoot  5.75146 0.568129 -3.52479
RightToes  5.82077e-011 -3.18055e-015 -2.98177e-016
Spine  6.7622 2.12969 -0.679501
Spine1  8.51936 3.82015 -8.02291
HEad  -10.5835 -3.05078 -1.34538
LeftShoulder1  -3.88251e-019 9.70628e-020 -3.87848e-018
LeftArm  -34.12 68.4124 -71.6293
LeftForeArm  -11.4723 -5.18626 -1.19011
LeftHand  -0.196375 2.1872 7.96866
RightShoulder  7.89436 10.7856 36.7919
RightArm  18.5654 -42.3244 23.4583
RightForeArm  -1.05941 30.7328 -16.5582
RightHand  -1.88937 7.96601 -16.3032
LeftUpLeg  -8.6721 -1.15792 -10.9192
LeftLeg  22.8462 1.54435 8.02896
LeftFoot  -6.59174 -0.134212 2.0525
LeftToes  7.79675e-011 9.80247e-012 -3.28897e-011
319
root  24.9571 39.1693 64.047 -7.72884 -7.01322 6.50001
RightUpLeg  -20.0062 -12.0196 -5.6885
RightLeg  64.2808 7.70411 -21.4924
RightFoot  3.3932 0.272762 -2.02158
RightToes  5.82077e-011 -3.18055e-015 -2.98177e-016
Spine  6.30972 1.68308 -1.56915
Spine1  7.78623 2.75273 -6.14444
HEad  -9.70843 -1.88416 -1.44327
LeftShoulder1  -3.88251e-019 9.70628e-020 -3.87848e-018
LeftArm  -31.606 66.237 -70.6599
LeftForeArm  -10.2595 -6.9407 -1.75832
LeftHand  -0.224218 1.98793 8.53856
RightShoulder  7.99808 10.8261 37.2123
RightArm  16.7371 -43.3215 22.0123
RightForeArm  3.10259 24.9887 -13.4824
RightHand  -2.11734 7.65887 -18.6694
LeftUpLeg  -6.56652 -2.67428 -9.98066
LeftLeg  21.3766 2.53994 7.96257
LeftFoot  -7.64548 -0.104083 1.76079
LeftToes  7.79675e-011 9.80247e-012 -3.28897e-011
320
root  24.8373 39.3466 65.1442 -7.2166 -7.17137 5.64526
RightUpLeg  -23.2621 -13.5468 -3.06838
RightLeg  61.7784 7.91831 -18.4748
RightFoot  3.14079 0.129041 -1.04065
RightToes  5.82077e-011 -3.18055e-015 -2.98177e-016
Spine  6.26883 1.46118 -2.66196
Spine1  6.60749 1.96169 -4.30285
HEad  -8.84612 -0.705526 -1.05965
LeftShoulder1  -3.88251e-019 9.70628e-020 -3.87848e-018
LeftArm  -28.7139 63.9696 -69.4854
LeftForeArm  -8.97185 -9.27501 -2.28464
LeftHand  -0.351821 0.454536 9.06785
RightShoulder  7.99205 10.8266 37.1811
RightArm  11.9616 -44.5822 20.5374
RightForeArm  4.78446 19.4852 -9.83635
RightHand  -2.0084 6.33737 -19.6182
LeftUpLeg  -4.63988 -2.34724 -8.99548
LeftLeg  20.3622 2.30655 7.3937
LeftFoot  -8.49364 -0.0935246 1.76019
LeftToes  7.79675e-011 9.80247e-012 -3.28897e-011
